<svg enable-background="new 0 0 512 512" height="512" viewBox="0 0 512 512" width="512" xmlns="http://www.w3.org/2000/svg"><g id="_x31_045_x2C__Alert_x2C__danger_x2C__warning_x2C__sign"><g><path d="m308.728 42.79c-9.96-10.67-24.043-16.79-38.639-16.79h-28.178c-14.595 0-28.678 6.119-38.637 16.789s-15.095 25.14-14.091 39.701l14.089 204.292c1.903 27.599 25.063 49.218 52.728 49.218 27.664 0 50.824-21.619 52.728-49.217l14.089-204.293c1.004-14.56-4.13-29.03-14.089-39.7zm-5.864 38.323-14.089 204.293c-1.182 17.155-15.58 30.594-32.775 30.594-17.196 0-31.593-13.439-32.775-30.593l-14.09-204.293c-1.319-19.12 13.836-35.114 32.776-35.114h28.178c19.165 0 34.079 16.218 32.775 35.113z"/><path d="m256 366c-33.084 0-60 26.916-60 60s26.916 60 60 60 60-26.916 60-60-26.916-60-60-60zm0 100c-22.056 0-40-17.944-40-40s17.944-40 40-40 40 17.944 40 40-17.944 40-40 40z"/></g></g></svg>