<svg id="Layer_1" height="512" viewBox="0 0 128 128" width="512" xmlns="http://www.w3.org/2000/svg" data-name="Layer 1"><path d="m98.44 11.81h-15.35a12.62 12.62 0 0 0 -12.28-9.81h-13.61a12.62 12.62 0 0 0 -12.28 9.81h-15.34a11.53 11.53 0 0 0 -11.52 11.5v91.19a11.53 11.53 0 0 0 11.52 11.5h68.86a11.51 11.51 0 0 0 11.5-11.5v-91.19a11.51 11.51 0 0 0 -11.5-11.5zm-41.24-6.93h13.61a9.73 9.73 0 0 1 9.72 9.72v13h-33.05v-13a9.73 9.73 0 0 1 9.72-9.72zm49.86 109.62a8.63 8.63 0 0 1 -8.62 8.62h-68.86a8.64 8.64 0 0 1 -8.64-8.62v-91.19a8.64 8.64 0 0 1 8.64-8.62h15v14.31a1.44 1.44 0 0 0 1.42 1.47h36a1.44 1.44 0 0 0 1.41-1.47v-14.31h15a8.63 8.63 0 0 1 8.62 8.62z"/><path d="m80.81 53.8-27.15 27.2-6.47-6.46a1.44 1.44 0 0 0 -2 2l7.45 7.46a1.43 1.43 0 0 0 1 .42 1.45 1.45 0 0 0 1-.42l28.21-28.16a1.44 1.44 0 0 0 -2-2z"/></svg>