<svg id="Layer_1" enable-background="new 0 0 511.999 511.999" height="512" viewBox="0 0 511.999 511.999" width="512" xmlns="http://www.w3.org/2000/svg"><path d="m478.501 7h-30.001c-11.079 0-20.768 6.042-25.963 15h-49.037c-76.645 0-139 62.355-139 139v168c0 18.196-14.804 33-33 33-18.32 0-33.225-14.804-33.225-33v-242.906c9.082-5.163 15.225-14.921 15.225-26.094v-30c0-16.542-13.458-30-30-30h-120.001c-16.542 0-30 13.458-30 30v30c0 10.988 5.941 20.609 14.776 25.835v243.165c0 100.906 82.194 183 183.225 183 100.907 0 183-82.093 183-183v-157h38.036c5.195 8.959 14.884 15.002 25.964 15.002h30.001c16.541 0 29.999-13.458 29.999-30v-120.002c0-16.542-13.458-30-29.999-30zm-430.225 83h90v136.407c-4.583-1.533-9.544-2.628-15-2.628-8.899 0-16.083 3.692-21.856 6.659-2.897 1.489-6.502 3.341-8.144 3.341s-5.247-1.853-8.144-3.341c-5.772-2.967-12.957-6.659-21.856-6.659-5.457 0-10.417 1.095-15 2.627zm105.225-60 .003 30h-120.005v-30zm47.999 451.999c-84.488 0-153.225-68.635-153.225-153v-70.15c.355-.16.714-.32 1.066-.48 5.216-2.361 10.143-4.591 13.934-4.591 1.642 0 5.247 1.853 8.144 3.341 5.772 2.967 12.957 6.659 21.856 6.659s16.083-3.692 21.856-6.659c2.897-1.489 6.502-3.341 8.144-3.341 3.79 0 8.718 2.23 13.934 4.591.352.159.712.319 1.066.479v70.152c0 34.738 28.362 63 63.225 63 34.738 0 63-28.262 63-63v-11.271h90v11.271c0 84.364-68.635 152.999-153 152.999zm172-339.999c-10.477 0-19 8.523-19 19v126.729h-90v-126.729c0-60.103 48.897-109 109-109h45.001v90zm75.001 15.002-.001-120.002 30-.003.001 120.005z"/></svg>