<svg id="svg" version="1.1" xmlns="http://www.w3.org/2000/svg" xmlns:xlink="http://www.w3.org/1999/xlink" width="400" height="398.0392156862745" viewBox="0, 0, 400,398.0392156862745"><g id="svgg"><path id="path0" d="M161.373 92.789 C 161.373 149.838,161.377 150.475,161.752 150.093 C 162.464 149.367,255.682 35.393,255.684 35.245 C 255.685 35.164,234.466 35.098,208.529 35.098 L 161.373 35.098 161.373 92.789 M241.029 77.402 C 248.336 77.430,260.292 77.430,267.598 77.402 C 274.904 77.373,268.926 77.350,254.314 77.350 C 239.701 77.350,233.723 77.373,241.029 77.402 M280.991 104.069 L 281.001 109.118 321.386 133.712 C 343.598 147.239,361.704 158.372,361.621 158.451 C 361.538 158.529,325.275 180.658,281.036 207.624 L 200.602 256.654 120.154 207.620 C 75.907 180.651,39.640 158.525,39.561 158.451 C 39.481 158.377,55.119 148.747,74.312 137.051 L 109.210 115.784 109.213 110.735 C 109.214 107.958,109.145 105.686,109.059 105.686 C 108.787 105.686,22.877 158.127,22.811 158.333 C 22.776 158.441,22.990 158.669,23.286 158.840 C 23.581 159.011,63.529 183.360,112.059 212.948 C 160.588 242.537,200.428 266.747,200.592 266.748 C 200.757 266.750,229.565 249.270,264.612 227.905 C 299.659 206.541,339.601 182.191,353.373 173.795 C 367.145 165.399,378.396 158.441,378.376 158.333 C 378.335 158.118,281.485 99.020,281.173 99.020 C 281.052 99.020,280.984 100.888,280.991 104.069 M230.882 155.294 C 230.805 155.419,231.371 155.490,232.439 155.490 C 233.428 155.490,234.118 155.410,234.118 155.294 C 234.118 155.180,233.468 155.098,232.561 155.098 C 231.704 155.098,230.949 155.186,230.882 155.294 M114.706 193.922 L 114.706 198.039 176.275 198.039 L 237.843 198.039 237.843 193.922 L 237.843 189.804 176.275 189.804 L 114.706 189.804 114.706 193.922 M334.282 244.127 C 330.375 244.475,329.937 245.239,330.035 251.543 C 330.136 258.002,330.348 258.144,339.642 257.994 C 346.677 257.879,347.447 257.463,347.450 253.775 L 347.451 252.549 345.294 252.549 L 343.137 252.549 343.137 253.137 C 343.137 254.426,342.758 254.541,338.718 254.473 C 334.039 254.394,334.216 254.526,334.216 251.113 C 334.216 247.403,334.298 247.346,339.479 247.480 C 342.519 247.559,342.872 247.671,342.979 248.593 L 343.039 249.118 345.098 249.118 L 347.157 249.118 347.132 247.734 C 347.075 244.529,345.769 243.905,339.216 243.953 C 337.436 243.966,335.216 244.044,334.282 244.127 M302.941 250.974 L 302.941 257.843 305.199 257.843 L 307.456 257.843 307.405 251.029 L 307.353 244.216 305.147 244.160 L 302.941 244.105 302.941 250.974 M309.216 250.980 L 309.216 257.843 311.373 257.843 L 313.529 257.843 313.529 252.745 C 313.529 249.941,313.596 247.651,313.676 247.655 C 313.757 247.660,315.415 249.932,317.361 252.704 L 320.898 257.745 324.567 257.798 L 328.235 257.852 328.235 250.985 L 328.235 244.118 326.059 244.118 L 323.884 244.118 324.028 249.241 C 324.150 253.570,324.130 254.351,323.900 254.277 C 323.750 254.229,322.039 251.927,320.098 249.160 L 316.569 244.130 312.892 244.124 L 309.216 244.118 309.216 250.980 M349.150 254.248 C 349.078 254.320,349.020 255.158,349.020 256.111 L 349.020 257.843 351.275 257.843 L 353.529 257.843 353.529 255.980 L 353.529 254.118 351.405 254.118 C 350.237 254.118,349.222 254.176,349.150 254.248 M124.203 303.186 L 123.627 303.824 124.265 303.248 C 124.615 302.931,124.902 302.644,124.902 302.610 C 124.902 302.459,124.740 302.592,124.203 303.186 M214.012 305.343 L 213.039 306.373 214.069 305.400 C 214.635 304.864,215.098 304.401,215.098 304.370 C 215.098 304.224,214.916 304.387,214.012 305.343 M62.735 324.265 L 62.059 325.000 62.794 324.324 C 63.479 323.695,63.620 323.529,63.470 323.529 C 63.437 323.529,63.106 323.860,62.735 324.265 M147.929 330.245 L 147.353 330.882 147.990 330.306 C 148.341 329.990,148.627 329.703,148.627 329.669 C 148.627 329.518,148.466 329.651,147.929 330.245 " stroke="none" fill="#149cf3" fill-rule="evenodd"></path><path id="path1" d="M113.137 36.765 C 113.137 37.952,113.207 38.431,113.378 38.431 C 114.886 38.431,117.904 40.516,118.557 42.008 C 118.992 43.005,119.245 172.169,118.815 174.250 C 118.418 176.172,116.987 177.537,114.416 178.445 L 113.165 178.886 113.262 180.276 C 113.315 181.041,113.398 181.865,113.447 182.108 L 113.537 182.549 179.133 182.549 L 244.729 182.549 244.668 189.369 L 244.608 196.188 244.106 197.163 C 243.470 198.399,242.110 199.442,240.245 200.122 L 238.824 200.641 238.824 202.183 L 238.824 203.725 258.145 203.725 L 277.467 203.725 277.410 202.129 L 277.353 200.532 276.569 200.298 C 272.156 198.980,271.713 197.982,271.614 189.150 L 271.541 182.516 275.917 182.599 C 282.234 182.720,283.333 183.314,284.703 187.351 L 285.036 188.333 286.636 188.390 L 288.235 188.447 288.235 172.067 L 288.235 155.686 286.661 155.686 C 285.577 155.686,285.059 155.763,285.001 155.931 C 283.915 159.056,283.226 160.079,281.664 160.882 L 280.519 161.471 276.044 161.536 L 271.569 161.601 271.569 124.221 C 271.569 97.603,271.631 86.593,271.785 85.981 C 272.260 84.096,274.299 82.710,278.877 81.161 L 280.784 80.516 280.784 78.984 L 280.784 77.451 254.314 77.451 L 227.843 77.451 227.843 78.998 L 227.843 80.545 228.578 80.680 C 231.812 81.275,233.309 83.503,232.167 86.020 C 231.227 88.088,230.416 89.069,219.216 101.673 C 214.632 106.830,207.662 114.679,203.725 119.115 C 199.789 123.550,193.049 131.145,188.746 135.991 C 184.444 140.838,177.697 148.444,173.754 152.892 L 166.584 160.980 156.723 160.980 L 146.863 160.980 146.865 102.402 C 146.868 40.424,146.837 42.626,147.705 41.311 C 148.513 40.088,150.386 38.908,152.108 38.537 L 152.745 38.400 152.745 36.749 L 152.745 35.098 132.941 35.098 L 113.137 35.098 113.137 36.765 M244.706 134.118 L 244.706 161.569 220.899 161.569 C 202.028 161.569,197.074 161.518,197.008 161.324 C 196.915 161.053,197.395 160.478,203.522 153.511 C 207.540 148.942,210.265 145.841,218.149 136.863 C 220.091 134.652,223.578 130.681,225.899 128.039 C 228.219 125.397,231.823 121.294,233.907 118.922 C 235.990 116.549,239.251 112.824,241.152 110.644 C 243.053 108.464,244.630 106.678,244.657 106.674 C 244.684 106.670,244.706 119.020,244.706 134.118 M37.647 222.059 L 37.647 262.353 103.725 262.353 C 140.069 262.353,169.804 262.319,169.804 262.278 C 169.804 262.237,169.297 261.897,168.676 261.523 C 168.056 261.150,162.299 257.640,155.882 253.725 C 149.466 249.809,143.025 245.883,141.569 244.999 C 140.113 244.116,136.495 241.911,133.529 240.100 C 125.536 235.219,107.938 224.490,104.902 222.647 C 103.446 221.763,99.873 219.585,96.961 217.807 C 94.049 216.029,87.784 212.209,83.039 209.318 C 78.294 206.428,72.647 202.986,70.490 201.670 C 66.815 199.428,64.310 197.901,54.460 191.895 C 52.277 190.563,47.650 187.739,44.179 185.619 C 40.707 183.499,37.818 181.765,37.757 181.765 C 37.697 181.765,37.647 199.897,37.647 222.059 M356.961 186.445 C 355.235 187.506,350.956 190.121,347.451 192.257 C 340.791 196.316,335.713 199.412,329.118 203.435 C 326.961 204.750,322.549 207.439,319.314 209.409 C 316.078 211.380,311.446 214.203,309.020 215.683 C 299.385 221.561,294.729 224.400,280.784 232.897 C 277.011 235.196,273.612 237.269,263.922 243.179 C 261.711 244.528,257.255 247.242,254.020 249.212 C 250.784 251.182,246.946 253.524,245.490 254.415 C 244.034 255.307,239.623 257.996,235.686 260.391 C 231.750 262.786,228.446 264.825,228.343 264.922 C 228.233 265.026,255.226 265.098,294.275 265.098 L 360.392 265.098 360.392 224.804 C 360.392 202.642,360.326 184.511,360.245 184.513 C 360.164 184.515,358.686 185.384,356.961 186.445 M343.806 244.125 C 346.273 244.482,347.090 245.369,347.132 247.734 L 347.157 249.118 345.098 249.118 L 343.039 249.118 342.979 248.593 C 342.872 247.671,342.519 247.559,339.479 247.480 C 334.298 247.346,334.216 247.403,334.216 251.113 C 334.216 254.526,334.039 254.394,338.718 254.473 C 342.758 254.541,343.137 254.426,343.137 253.137 L 343.137 252.549 345.294 252.549 L 347.451 252.549 347.450 253.775 C 347.447 257.463,346.677 257.879,339.642 257.994 C 330.348 258.144,330.136 258.002,330.035 251.543 C 329.954 246.319,330.194 245.413,331.875 244.615 C 333.147 244.012,340.836 243.696,343.806 244.125 M307.405 251.029 L 307.456 257.843 305.199 257.843 L 302.941 257.843 302.941 250.974 L 302.941 244.105 305.147 244.160 L 307.353 244.216 307.405 251.029 M320.098 249.160 C 322.039 251.927,323.750 254.229,323.900 254.277 C 324.130 254.351,324.150 253.570,324.028 249.241 L 323.884 244.118 326.059 244.118 L 328.235 244.118 328.235 250.985 L 328.235 257.852 324.567 257.798 L 320.898 257.745 317.361 252.704 C 315.415 249.932,313.757 247.660,313.676 247.655 C 313.596 247.651,313.529 249.941,313.529 252.745 L 313.529 257.843 311.373 257.843 L 309.216 257.843 309.216 250.980 L 309.216 244.118 312.892 244.124 L 316.569 244.130 320.098 249.160 M353.529 255.980 L 353.529 257.843 351.275 257.843 L 349.020 257.843 349.020 256.111 C 349.020 253.980,348.855 254.118,351.405 254.118 L 353.529 254.118 353.529 255.980 M88.158 269.822 C 87.411 270.411,87.045 271.244,85.886 275.000 C 81.636 288.777,76.370 300.956,66.449 319.959 C 63.236 326.114,50.686 334.150,41.275 336.079 C 38.764 336.594,38.626 336.711,38.632 338.322 C 38.661 345.496,47.928 351.253,62.773 353.320 C 68.427 354.108,72.705 354.344,77.292 354.122 C 83.527 353.820,90.803 353.360,91.476 353.225 C 92.054 353.109,92.102 353.160,93.281 355.131 C 99.321 365.233,109.449 371.560,115.796 369.196 C 117.918 368.406,121.623 364.109,126.627 356.633 L 129.491 352.353 130.383 352.355 C 130.873 352.356,132.245 352.440,133.431 352.543 C 134.618 352.646,136.912 352.823,138.529 352.937 C 145.221 353.410,155.355 355.040,159.716 356.346 C 164.402 357.749,165.452 357.355,165.241 354.272 C 165.018 350.996,162.532 348.581,158.529 347.750 C 157.667 347.570,156.387 347.301,155.686 347.150 C 152.027 346.366,149.629 346.159,138.635 345.681 C 135.997 345.566,133.804 345.438,133.762 345.396 C 133.464 345.098,136.414 340.443,136.772 340.647 C 136.987 340.769,137.941 340.856,138.930 340.844 C 143.108 340.791,146.978 338.518,151.598 333.403 L 152.687 332.197 153.015 333.724 C 154.088 338.719,157.565 341.101,162.744 340.392 C 165.978 339.949,167.433 339.144,170.808 335.930 L 172.302 334.506 172.438 335.538 C 173.445 343.142,183.884 342.486,190.980 334.374 C 192.289 332.877,192.106 332.849,192.980 334.675 C 195.681 340.314,203.043 342.442,210.344 339.694 C 212.380 338.928,216.354 336.163,218.843 333.780 L 219.744 332.917 219.863 334.598 C 220.144 338.583,221.818 340.648,225.352 341.369 C 227.665 341.840,231.278 340.597,233.480 338.573 C 234.232 337.881,233.972 338.404,231.596 342.353 L 229.297 346.176 226.658 346.300 C 225.207 346.369,221.721 346.435,218.912 346.447 C 213.520 346.472,209.805 346.691,206.569 347.174 C 205.490 347.336,203.904 347.550,203.044 347.652 C 195.898 348.494,197.454 355.532,206.653 363.978 C 213.590 370.347,222.005 372.221,225.374 368.147 C 225.815 367.613,226.848 366.466,227.669 365.598 C 229.624 363.530,231.136 361.490,234.118 356.893 L 236.569 353.115 239.314 353.232 C 248.719 353.633,258.656 354.979,266.885 356.965 C 271.974 358.193,272.794 357.884,272.477 354.856 C 272.147 351.693,269.929 349.540,266.078 348.641 C 259.780 347.172,256.047 346.770,246.618 346.547 C 243.409 346.472,240.784 346.367,240.784 346.314 C 240.784 346.262,241.359 345.135,242.062 343.811 L 243.339 341.403 245.248 341.420 C 250.825 341.468,256.471 337.210,261.895 328.863 C 264.170 325.363,264.569 324.166,263.892 322.879 C 262.922 321.036,260.983 322.036,258.686 325.565 C 253.872 332.960,248.540 336.983,248.275 333.420 C 248.169 331.986,253.617 319.836,258.953 309.608 C 260.107 307.397,261.519 304.635,262.093 303.469 C 262.666 302.303,263.359 301.056,263.633 300.697 C 264.720 299.271,264.468 297.358,263.096 296.626 C 261.830 295.949,257.812 295.959,256.373 296.641 C 254.054 297.741,252.860 298.996,251.865 301.377 C 251.573 302.076,250.999 303.353,250.589 304.216 C 250.179 305.078,249.427 306.711,248.918 307.843 C 244.587 317.479,239.044 326.408,233.981 331.904 C 231.303 334.811,228.824 336.184,228.824 334.760 C 228.824 334.074,230.558 328.847,231.574 326.471 C 232.629 324.002,244.069 301.114,244.527 300.554 C 245.532 299.326,245.203 297.332,243.880 296.626 C 242.716 296.004,238.593 295.958,237.353 296.553 C 234.969 297.696,233.329 299.289,232.489 301.275 C 232.216 301.922,231.192 304.003,230.213 305.899 C 227.955 310.276,226.545 313.405,224.612 318.333 C 222.885 322.735,222.964 322.617,218.004 328.257 C 212.910 334.051,208.497 336.327,203.922 335.521 C 200.915 334.991,199.904 334.065,199.946 331.876 C 200.100 323.798,209.372 307.992,216.903 302.969 C 220.442 300.608,220.029 302.602,215.496 309.772 C 212.977 313.756,212.897 314.558,214.964 315.115 C 219.740 316.401,226.382 303.767,223.685 298.529 C 221.552 294.388,214.063 294.506,208.324 298.772 C 200.549 304.552,193.251 315.899,191.785 324.488 C 191.367 326.938,191.068 327.454,188.450 330.245 C 183.315 335.716,180.317 334.872,182.864 328.673 C 185.135 323.147,193.067 309.176,195.971 305.588 C 197.549 303.639,197.467 302.447,195.621 300.440 C 193.129 297.734,189.112 298.511,185.614 302.376 L 184.510 303.596 184.510 302.128 C 184.510 292.485,171.815 294.617,162.211 305.872 C 158.406 310.332,154.068 318.477,153.434 322.353 C 153.256 323.443,152.007 325.370,149.129 328.993 C 147.921 330.513,144.693 333.156,143.476 333.621 C 142.500 333.994,141.741 333.808,141.294 333.089 C 140.365 331.594,146.176 319.756,152.415 310.435 C 157.424 302.950,157.444 302.885,155.344 300.561 C 152.797 297.742,149.375 298.197,145.860 301.823 L 143.975 303.768 143.871 301.737 C 143.616 296.786,140.522 294.864,134.930 296.182 C 126.529 298.162,115.039 312.183,112.884 323.083 L 112.451 325.274 110.899 327.053 C 105.382 333.381,100.294 336.154,95.217 335.600 C 92.500 335.303,91.697 334.723,91.468 332.891 C 91.287 331.439,91.985 327.452,92.422 327.450 C 92.546 327.450,93.496 327.066,94.534 326.598 C 113.313 318.129,124.132 295.580,109.412 295.591 C 104.616 295.594,101.305 297.342,95.862 302.745 C 79.878 318.611,78.579 338.901,93.427 340.784 C 99.219 341.518,104.366 339.295,110.637 333.349 C 112.287 331.785,112.353 331.744,112.353 332.290 C 112.353 338.501,118.440 342.163,124.804 339.779 C 125.343 339.577,125.815 339.412,125.852 339.412 C 126.002 339.412,124.611 341.705,123.407 343.445 L 122.127 345.294 120.460 345.294 C 119.543 345.294,117.277 345.077,115.426 344.812 C 108.509 343.820,100.483 343.587,89.804 344.065 C 83.470 344.349,71.128 344.110,66.373 343.612 C 64.755 343.443,63.275 343.288,63.085 343.270 C 62.797 343.241,62.884 343.018,63.592 341.961 C 64.504 340.598,69.018 333.413,72.398 327.941 C 82.900 310.942,92.218 291.632,94.399 282.345 C 94.588 281.540,94.881 280.574,95.050 280.197 C 95.230 279.796,95.395 278.737,95.446 277.648 L 95.534 275.784 94.587 273.937 C 92.706 270.268,89.886 268.463,88.158 269.822 M349.704 274.194 C 349.380 274.335,348.398 275.125,347.521 275.950 C 346.645 276.774,345.176 278.089,344.257 278.872 C 343.339 279.654,341.321 281.447,339.774 282.857 C 335.074 287.137,325.457 295.124,320.647 298.740 C 317.649 300.995,315.809 302.164,309.993 305.511 C 304.198 308.846,303.725 309.283,303.725 311.308 C 303.725 313.816,305.128 314.928,307.761 314.507 C 313.258 313.629,329.546 312.298,331.337 312.580 C 331.792 312.652,331.613 313.009,324.966 325.294 C 317.576 338.953,317.272 339.873,319.928 340.561 C 323.451 341.473,326.750 340.738,328.908 338.559 C 330.853 336.596,336.559 325.976,341.287 315.522 L 342.647 312.515 344.510 312.645 C 345.534 312.716,346.946 312.855,347.647 312.952 C 348.348 313.050,349.513 313.131,350.235 313.133 C 350.957 313.136,352.590 313.277,353.863 313.447 C 359.741 314.234,360.919 313.680,360.434 310.357 C 359.774 305.824,356.082 303.191,350.064 302.958 L 347.089 302.843 349.981 296.078 C 351.572 292.358,353.295 288.481,353.810 287.462 C 356.031 283.075,356.481 277.323,354.762 275.281 C 353.704 274.023,351.288 273.504,349.704 274.194 M343.037 289.730 C 342.768 290.337,342.549 290.913,342.549 291.012 C 342.549 291.110,342.165 291.871,341.695 292.703 C 341.225 293.535,340.190 295.672,339.395 297.451 C 336.570 303.778,337.018 303.377,332.376 303.731 C 331.015 303.835,329.180 304.016,328.297 304.134 C 327.414 304.251,326.547 304.318,326.371 304.281 C 326.164 304.239,327.757 302.698,330.899 299.902 C 333.566 297.529,337.476 294.028,339.589 292.122 C 341.702 290.216,343.452 288.649,343.478 288.642 C 343.504 288.634,343.305 289.124,343.037 289.730 M139.956 302.158 C 140.970 302.776,141.072 303.284,140.711 305.936 C 140.538 307.206,140.264 308.503,140.101 308.817 C 139.938 309.132,139.044 311.270,138.113 313.567 C 136.279 318.094,134.779 321.327,133.582 323.333 C 133.164 324.034,132.327 325.446,131.723 326.471 C 127.748 333.207,123.651 336.520,120.865 335.251 C 117.790 333.849,122.534 321.528,130.738 309.608 C 135.449 302.763,137.814 300.852,139.956 302.158 M180.272 302.174 C 182.931 304.266,180.742 311.626,174.290 322.292 C 168.401 332.028,165.350 335.528,162.711 335.573 C 158.077 335.652,160.297 327.246,168.380 314.111 C 174.504 304.160,178.147 300.503,180.272 302.174 M111.092 302.436 C 111.311 303.309,108.882 308.137,107.093 310.385 C 103.783 314.542,99.953 317.905,95.842 320.262 L 94.919 320.791 96.411 318.190 C 99.483 312.837,103.499 307.229,106.067 304.706 C 108.532 302.284,110.797 301.260,111.092 302.436 M58.506 333.775 C 58.426 333.909,57.755 334.927,57.015 336.036 C 56.275 337.144,55.615 338.193,55.548 338.366 C 55.482 338.539,55.141 339.107,54.790 339.629 C 54.439 340.150,54.049 340.888,53.923 341.269 C 53.798 341.649,53.602 341.961,53.488 341.961 C 53.248 341.961,47.588 340.315,46.863 340.034 L 46.373 339.844 46.863 339.649 C 47.132 339.541,48.059 339.171,48.922 338.827 C 51.734 337.704,56.393 335.185,58.137 333.843 C 58.619 333.473,58.692 333.459,58.506 333.775 M118.007 352.713 C 117.581 353.781,110.483 364.901,110.228 364.899 C 108.549 364.885,102.817 360.266,100.172 356.796 C 99.501 355.916,98.688 354.865,98.365 354.461 C 98.042 354.056,97.814 353.689,97.859 353.645 C 98.479 353.035,118.242 352.121,118.007 352.713 M224.001 353.676 C 223.404 354.466,216.849 362.115,215.647 363.425 L 214.921 364.216 213.784 363.627 C 212.241 362.828,210.129 361.119,208.802 359.595 C 207.260 357.824,204.902 354.669,204.902 354.377 C 204.902 353.681,212.190 353.073,221.739 352.971 L 224.556 352.941 224.001 353.676 " stroke="none" fill="#fcfcfc" fill-rule="evenodd"></path></g></svg>