<svg id="svg" version="1.1" xmlns="http://www.w3.org/2000/svg" xmlns:xlink="http://www.w3.org/1999/xlink" width="400" height="398.0392156862745" viewBox="0, 0, 400,398.0392156862745"><g id="svgg"><path id="path0" d="M161.373 92.789 C 161.373 149.387,161.380 150.472,161.744 150.093 C 161.948 149.880,175.902 132.853,192.753 112.255 C 209.605 91.657,230.636 65.955,239.490 55.140 C 248.344 44.325,255.618 35.392,255.654 35.287 C 255.696 35.166,238.796 35.098,208.546 35.098 L 161.373 35.098 161.373 92.789 M280.980 104.019 L 280.980 109.018 282.108 109.718 C 282.728 110.102,288.088 113.373,294.020 116.986 C 299.951 120.599,306.436 124.552,308.431 125.770 C 310.426 126.988,317.529 131.317,324.216 135.391 C 330.902 139.465,337.917 143.741,339.804 144.894 C 341.691 146.047,347.413 149.537,352.520 152.650 C 360.921 157.772,361.769 158.335,361.441 158.577 C 361.078 158.844,353.984 163.175,316.471 186.036 C 305.417 192.772,295.402 198.879,294.216 199.607 C 292.179 200.858,286.249 204.472,247.255 228.231 C 238.358 233.652,230.108 238.683,228.922 239.412 C 226.384 240.970,208.377 251.946,203.779 254.737 L 200.597 256.668 190.348 250.423 C 184.710 246.988,175.642 241.461,170.196 238.141 C 164.750 234.821,156.500 229.791,151.863 226.965 C 147.225 224.138,138.975 219.108,133.529 215.788 C 128.083 212.468,119.833 207.438,115.196 204.612 C 110.559 201.785,102.309 196.755,96.863 193.435 C 70.446 177.330,54.123 167.380,46.373 162.659 C 42.706 160.425,39.636 158.531,39.551 158.448 C 39.466 158.366,41.937 156.753,45.042 154.863 C 48.146 152.973,55.142 148.710,60.588 145.389 C 66.034 142.068,74.284 137.039,78.922 134.212 C 83.559 131.385,91.809 126.355,97.255 123.033 C 102.701 119.711,107.618 116.722,108.182 116.389 L 109.208 115.784 109.212 110.735 C 109.214 107.958,109.162 105.686,109.097 105.686 C 108.952 105.686,106.115 107.398,93.431 115.136 C 83.626 121.117,70.989 128.823,55.686 138.149 C 28.140 154.938,22.862 158.181,22.815 158.346 C 22.786 158.447,26.396 160.735,30.836 163.431 C 35.277 166.127,40.589 169.357,42.641 170.609 C 44.694 171.860,55.461 178.423,66.569 185.192 C 77.676 191.961,87.735 198.095,88.922 198.824 C 90.108 199.552,98.358 204.583,107.255 210.004 C 146.232 233.752,152.179 237.377,154.216 238.628 C 155.402 239.356,161.843 243.284,168.529 247.357 C 175.216 251.429,182.451 255.838,184.608 257.153 C 186.765 258.469,191.241 261.198,194.556 263.218 L 200.582 266.891 203.477 265.143 C 205.070 264.181,210.828 260.676,216.275 257.353 C 221.721 254.029,228.162 250.102,230.588 248.624 C 233.015 247.147,239.456 243.220,244.902 239.899 C 250.348 236.577,256.789 232.651,259.216 231.173 C 261.642 229.696,268.083 225.770,273.529 222.449 C 278.975 219.128,287.225 214.098,291.863 211.271 C 296.500 208.444,304.750 203.415,310.196 200.094 C 315.642 196.774,323.892 191.745,328.529 188.918 C 348.878 176.514,357.286 171.387,366.520 165.753 C 371.939 162.446,376.834 159.468,377.398 159.135 C 377.962 158.802,378.397 158.445,378.364 158.341 C 378.299 158.131,377.421 157.591,343.725 137.062 C 334.828 131.642,326.578 126.611,325.392 125.883 C 324.206 125.154,314.147 119.024,303.039 112.260 C 291.931 105.496,282.514 99.750,282.112 99.491 C 280.946 98.739,280.980 98.601,280.980 104.019 M114.706 193.922 L 114.706 198.039 176.275 198.039 L 237.843 198.039 237.843 193.922 L 237.843 189.804 176.275 189.804 L 114.706 189.804 114.706 193.922 M333.276 244.316 C 330.424 244.813,330.098 245.486,330.098 250.882 C 330.098 257.669,330.231 257.796,337.549 257.982 C 345.723 258.189,347.235 257.601,347.316 254.176 L 347.353 252.647 345.368 252.591 L 343.383 252.536 343.165 253.403 C 342.891 254.492,342.760 254.544,339.960 254.659 C 334.481 254.885,334.216 254.719,334.216 251.079 L 334.216 248.397 334.766 247.924 C 335.300 247.464,335.410 247.451,338.626 247.451 C 342.351 247.451,342.883 247.564,342.976 248.372 L 343.039 248.922 345.071 248.978 L 347.102 249.034 347.028 247.566 C 346.942 245.861,346.585 245.221,345.380 244.608 C 344.532 244.177,335.344 243.956,333.276 244.316 M302.941 251.078 L 302.941 257.843 305.098 257.843 L 307.255 257.843 307.255 251.078 L 307.255 244.314 305.098 244.314 L 302.941 244.314 302.941 251.078 M309.216 251.078 L 309.216 257.843 311.324 257.843 L 313.431 257.843 313.370 252.745 C 313.319 248.451,313.353 247.647,313.587 247.647 C 313.739 247.647,315.483 249.941,317.462 252.745 L 321.060 257.843 324.648 257.843 L 328.235 257.843 328.235 251.078 L 328.235 244.314 326.176 244.314 L 324.118 244.314 324.118 249.314 C 324.118 253.271,324.065 254.314,323.864 254.314 C 323.725 254.314,322.031 252.064,320.100 249.314 L 316.589 244.314 312.902 244.314 L 309.216 244.314 309.216 251.078 M349.216 256.078 L 349.216 257.843 351.373 257.843 L 353.529 257.843 353.529 256.078 L 353.529 254.314 351.373 254.314 L 349.216 254.314 349.216 256.078 " stroke="none" fill="#149bf3" fill-rule="evenodd"></path><path id="path1" d="M113.137 36.734 L 113.137 38.369 113.971 38.619 C 116.199 39.285,117.889 40.551,118.568 42.059 C 119.085 43.207,119.223 172.724,118.709 174.504 C 118.147 176.452,116.872 177.613,114.384 178.441 L 113.137 178.855 113.248 180.261 C 113.309 181.034,113.398 181.865,113.448 182.108 L 113.537 182.549 179.121 182.549 L 244.706 182.549 244.706 188.886 C 244.706 197.790,244.185 198.982,239.716 200.298 L 238.922 200.532 238.865 202.129 L 238.808 203.725 258.137 203.725 L 277.467 203.725 277.410 202.135 L 277.353 200.544 276.161 200.113 C 272.014 198.613,271.722 197.908,271.619 189.150 L 271.541 182.516 275.917 182.600 C 281.970 182.715,283.113 183.273,284.462 186.769 L 285.065 188.333 286.650 188.390 L 288.235 188.447 288.235 172.059 L 288.235 155.670 286.644 155.727 L 285.053 155.784 284.603 157.029 C 283.201 160.906,281.880 161.569,275.544 161.569 L 271.565 161.569 271.616 123.775 L 271.667 85.980 272.210 85.055 C 273.058 83.614,275.152 82.420,279.167 81.092 L 280.784 80.556 280.784 78.905 L 280.784 77.255 254.314 77.255 L 227.843 77.255 227.843 78.892 L 227.843 80.530 229.119 80.875 C 232.242 81.721,233.276 83.716,231.947 86.332 C 230.948 88.297,229.560 89.969,219.629 101.163 C 214.387 107.072,200.304 122.946,188.333 136.439 L 166.569 160.971 156.714 160.976 L 146.860 160.980 146.910 102.010 L 146.961 43.039 147.412 42.059 C 148.194 40.362,149.416 39.389,151.618 38.708 L 152.745 38.360 152.745 36.729 L 152.745 35.098 132.941 35.098 L 113.137 35.098 113.137 36.734 M244.706 134.118 L 244.706 161.569 220.869 161.569 C 197.220 161.569,197.032 161.566,197.094 161.180 C 197.141 160.892,244.383 106.761,244.657 106.681 C 244.684 106.673,244.706 119.020,244.706 134.118 M230.882 155.294 C 230.805 155.419,231.371 155.490,232.439 155.490 C 233.428 155.490,234.118 155.410,234.118 155.294 C 234.118 155.180,233.468 155.098,232.561 155.098 C 231.704 155.098,230.949 155.186,230.882 155.294 M37.647 222.038 L 37.647 262.353 103.765 262.353 C 143.330 262.353,169.808 262.282,169.696 262.175 C 169.473 261.962,38.245 181.957,37.892 181.819 C 37.697 181.742,37.647 189.865,37.647 222.038 M294.314 224.622 C 258.132 246.680,228.446 264.811,228.343 264.913 C 228.226 265.029,252.835 265.098,294.275 265.098 L 360.392 265.098 360.392 224.804 C 360.392 202.642,360.326 184.511,360.245 184.513 C 360.164 184.514,330.495 202.563,294.314 224.622 M345.380 244.608 C 346.585 245.221,346.942 245.861,347.028 247.566 L 347.102 249.034 345.071 248.978 L 343.039 248.922 342.976 248.372 C 342.883 247.564,342.351 247.451,338.626 247.451 C 335.410 247.451,335.300 247.464,334.766 247.924 L 334.216 248.397 334.216 251.079 C 334.216 254.719,334.481 254.885,339.960 254.659 C 342.760 254.544,342.891 254.492,343.165 253.403 L 343.383 252.536 345.368 252.591 L 347.353 252.647 347.316 254.176 C 347.235 257.601,345.723 258.189,337.549 257.982 C 330.231 257.796,330.098 257.669,330.098 250.882 C 330.098 244.179,330.170 244.128,339.412 244.184 C 344.183 244.213,344.671 244.248,345.380 244.608 M307.255 251.078 L 307.255 257.843 305.098 257.843 L 302.941 257.843 302.941 251.078 L 302.941 244.314 305.098 244.314 L 307.255 244.314 307.255 251.078 M320.100 249.314 C 322.031 252.064,323.725 254.314,323.864 254.314 C 324.065 254.314,324.118 253.271,324.118 249.314 L 324.118 244.314 326.176 244.314 L 328.235 244.314 328.235 251.078 L 328.235 257.843 324.648 257.843 L 321.060 257.843 317.462 252.745 C 315.483 249.941,313.739 247.647,313.587 247.647 C 313.353 247.647,313.319 248.451,313.370 252.745 L 313.431 257.843 311.324 257.843 L 309.216 257.843 309.216 251.078 L 309.216 244.314 312.902 244.314 L 316.589 244.314 320.100 249.314 M353.529 256.078 L 353.529 257.843 351.373 257.843 L 349.216 257.843 349.216 256.078 L 349.216 254.314 351.373 254.314 L 353.529 254.314 353.529 256.078 M87.864 270.010 C 87.387 270.486,87.063 271.255,86.273 273.784 C 81.743 288.278,76.740 300.073,67.711 317.549 L 65.988 320.882 62.749 324.121 C 56.514 330.356,49.565 334.249,41.569 335.987 C 38.743 336.601,38.627 336.694,38.630 338.322 C 38.639 343.598,43.492 348.070,52.399 351.008 C 58.498 353.020,69.197 354.501,75.588 354.219 C 81.521 353.957,91.076 353.357,91.689 353.209 C 92.041 353.123,92.245 353.358,93.022 354.740 C 99.551 366.347,111.669 372.839,117.793 368.010 C 119.108 366.973,123.695 361.075,126.730 356.520 L 129.506 352.353 130.272 352.353 C 132.568 352.353,143.736 353.370,147.741 353.943 C 150.889 354.394,157.685 355.794,160.960 356.667 C 164.554 357.624,165.199 357.300,165.191 354.538 C 165.182 351.133,162.921 348.744,158.857 347.845 C 157.814 347.614,156.387 347.298,155.686 347.143 C 152.094 346.347,150.258 346.190,138.635 345.682 C 135.997 345.567,133.808 345.442,133.772 345.406 C 133.735 345.369,134.301 344.269,135.029 342.962 L 136.352 340.585 137.049 340.734 C 141.231 341.626,146.567 339.069,151.046 334.025 L 152.647 332.222 153.074 333.950 C 155.032 341.879,163.357 342.986,170.461 336.262 L 172.308 334.514 172.444 335.604 C 173.380 343.089,184.289 342.397,190.980 334.428 C 192.218 332.954,192.276 332.927,192.453 333.736 C 192.842 335.506,195.710 338.642,197.876 339.666 C 204.098 342.608,212.038 340.409,218.745 333.888 L 219.744 332.916 219.862 334.644 C 220.321 341.389,226.325 343.618,232.468 339.324 C 234.088 338.191,234.108 338.126,231.494 342.469 L 229.262 346.176 226.543 346.300 C 225.047 346.367,221.525 346.434,218.716 346.447 C 213.341 346.472,209.506 346.697,206.569 347.158 C 205.598 347.311,204.037 347.523,203.100 347.629 C 198.720 348.127,197.415 350.624,199.385 354.745 C 204.732 365.933,219.560 374.030,224.862 368.657 C 227.971 365.507,230.851 362.045,232.390 359.608 C 232.969 358.691,234.178 356.848,235.077 355.512 L 236.711 353.082 239.189 353.213 C 249.783 353.770,258.836 355.005,266.856 356.986 C 270.059 357.777,270.562 357.854,271.217 357.658 C 273.358 357.017,272.846 352.930,270.344 350.680 C 268.790 349.283,268.641 349.226,263.431 348.033 C 259.647 347.167,254.872 346.745,246.615 346.548 C 243.408 346.472,240.784 346.370,240.784 346.321 C 240.784 346.272,241.368 345.145,242.082 343.816 L 243.380 341.401 245.268 341.423 C 249.978 341.480,254.502 338.590,259.470 332.353 C 264.274 326.320,265.503 322.172,262.490 322.160 C 261.249 322.155,260.361 322.830,259.289 324.592 C 255.310 331.136,250.517 335.604,248.732 334.434 C 247.881 333.877,248.052 333.075,250.009 328.428 C 252.941 321.467,261.901 303.343,263.793 300.546 C 266.623 296.364,259.287 294.235,254.380 297.814 C 253.336 298.575,252.523 299.765,251.650 301.806 C 251.268 302.700,250.705 303.961,250.399 304.608 C 250.094 305.255,249.292 306.975,248.618 308.431 C 244.208 317.954,239.896 324.964,234.668 331.107 C 231.909 334.349,228.824 336.296,228.824 334.795 C 228.824 334.283,230.595 328.852,231.369 326.993 C 232.015 325.441,243.523 302.343,244.755 300.127 C 245.664 298.489,245.000 296.877,243.198 296.353 C 238.926 295.111,234.082 297.331,232.459 301.275 C 232.149 302.029,231.372 303.614,230.733 304.796 C 228.475 308.973,226.245 313.993,223.718 320.588 C 223.027 322.390,222.868 322.610,218.855 327.255 C 213.849 333.051,211.105 334.924,206.774 335.500 C 203.924 335.879,200.989 335.063,200.275 333.694 C 198.503 330.291,204.583 315.780,210.563 309.138 C 219.056 299.705,221.866 299.593,215.979 308.922 C 213.026 313.600,212.950 313.830,214.062 314.704 C 218.884 318.497,227.248 302.989,223.225 297.714 C 221.233 295.103,215.508 294.801,211.019 297.071 C 202.935 301.158,193.113 315.228,191.712 324.730 C 191.452 326.489,191.372 326.698,190.525 327.798 C 184.684 335.389,180.004 335.957,182.880 328.725 C 185.069 323.223,193.982 307.646,196.428 305.049 C 197.858 303.531,196.646 300.472,194.144 299.289 C 191.725 298.144,189.056 299.003,186.150 301.862 L 184.554 303.431 184.465 301.569 C 184.159 295.204,177.298 294.085,169.671 299.157 C 162.407 303.988,154.659 315.054,153.431 322.350 C 153.198 323.734,150.066 328.153,147.714 330.416 C 144.212 333.785,142.077 334.664,141.338 333.042 C 140.558 331.329,146.264 319.614,152.106 310.939 C 157.187 303.394,157.152 303.468,156.356 301.929 C 154.217 297.793,149.875 297.687,145.956 301.675 L 143.971 303.696 143.878 301.603 C 143.741 298.489,143.180 297.432,141.176 296.509 C 135.777 294.024,126.924 298.732,120.603 307.451 C 116.016 313.778,113.849 318.153,112.893 323.011 L 112.451 325.262 110.634 327.322 C 105.493 333.152,101.373 335.531,96.373 335.557 C 91.600 335.582,90.720 334.285,91.898 328.962 C 92.183 327.670,92.217 327.620,93.008 327.311 C 109.722 320.786,122.856 300.075,112.827 296.059 C 105.465 293.110,94.720 300.800,86.908 314.608 C 80.574 325.802,82.200 337.450,90.475 340.163 C 97.229 342.377,104.294 339.883,111.171 332.858 L 112.244 331.762 112.499 333.283 C 113.514 339.347,118.708 342.101,124.778 339.794 C 125.319 339.589,125.784 339.444,125.812 339.472 C 125.889 339.549,124.361 342.048,123.180 343.777 L 122.145 345.294 120.337 345.290 C 119.343 345.288,117.471 345.111,116.176 344.898 C 110.033 343.884,100.930 343.599,89.510 344.062 C 83.414 344.309,68.456 343.982,65.882 343.545 C 65.289 343.444,64.348 343.356,63.790 343.348 L 62.776 343.333 65.538 338.971 C 68.252 334.684,71.752 329.068,73.879 325.588 C 82.891 310.844,91.745 292.402,94.124 283.422 C 94.465 282.133,94.917 280.560,95.128 279.926 C 96.006 277.285,95.535 274.976,93.520 272.046 C 91.855 269.624,89.204 268.670,87.864 270.010 M349.690 274.190 C 349.358 274.340,348.387 275.113,347.532 275.908 C 346.676 276.703,345.360 277.882,344.607 278.529 C 343.853 279.176,341.868 280.948,340.197 282.465 C 338.525 283.983,335.525 286.589,333.529 288.257 C 331.534 289.925,328.799 292.214,327.451 293.344 C 321.365 298.448,317.410 301.212,310.490 305.198 C 304.032 308.919,303.725 309.197,303.725 311.347 C 303.725 313.809,305.145 314.925,307.748 314.509 C 313.170 313.643,330.545 312.232,331.546 312.576 C 331.659 312.615,330.466 315.029,328.896 317.941 C 320.753 333.037,318.235 337.953,318.235 338.757 C 318.235 341.419,325.026 341.773,328.128 339.272 C 330.495 337.364,336.046 327.332,341.484 315.136 L 342.647 312.526 344.412 312.649 C 345.382 312.716,346.750 312.852,347.451 312.950 C 348.152 313.049,349.387 313.134,350.196 313.140 C 351.005 313.145,352.284 313.234,353.039 313.337 C 359.636 314.233,360.510 313.956,360.469 310.984 C 360.406 306.290,356.446 303.204,350.175 302.961 L 347.115 302.843 350.090 295.882 C 351.726 292.054,353.443 288.177,353.906 287.267 C 356.399 282.363,356.466 276.536,354.051 274.619 C 353.161 273.912,350.816 273.681,349.690 274.190 M342.934 289.918 C 342.722 290.412,342.549 290.890,342.549 290.979 C 342.549 291.068,342.182 291.789,341.733 292.580 C 341.284 293.372,340.266 295.475,339.471 297.255 C 338.676 299.034,337.665 301.120,337.225 301.890 C 336.303 303.505,336.610 303.390,332.353 303.721 C 330.897 303.834,329.033 304.023,328.210 304.139 C 327.388 304.256,326.573 304.321,326.399 304.284 C 326.117 304.223,342.782 289.079,343.179 289.035 C 343.256 289.027,343.146 289.424,342.934 289.918 M139.956 302.158 C 141.228 302.933,141.163 306.481,139.824 309.435 C 139.500 310.148,138.581 312.354,137.782 314.337 C 132.951 326.320,126.318 335.458,122.375 335.560 C 117.767 335.680,119.512 328.371,127.213 315.294 C 133.581 304.481,137.366 300.579,139.956 302.158 M180.272 302.174 C 183.386 304.624,179.846 314.137,170.680 327.950 C 166.752 333.869,164.188 336.090,161.974 335.494 C 157.921 334.402,161.513 324.436,171.335 309.518 C 175.235 303.596,178.582 300.845,180.272 302.174 M111.091 302.431 C 111.216 302.930,110.112 305.547,108.870 307.694 C 106.276 312.179,101.003 317.301,96.196 320.008 L 95.039 320.659 95.791 319.300 C 96.992 317.126,99.328 313.408,100.748 311.411 C 101.469 310.396,102.346 309.157,102.697 308.658 C 105.923 304.069,110.626 300.580,111.091 302.431 M58.521 333.739 C 58.450 333.854,57.739 334.914,56.941 336.095 C 56.143 337.276,55.490 338.329,55.490 338.436 C 55.490 338.543,55.245 338.969,54.946 339.382 C 54.646 339.796,54.232 340.523,54.025 340.998 C 53.818 341.474,53.629 341.893,53.604 341.929 C 53.543 342.021,47.181 340.197,46.850 339.992 C 46.509 339.782,46.453 339.815,48.431 339.044 C 51.013 338.037,54.615 336.184,56.667 334.808 C 58.716 333.434,58.706 333.440,58.521 333.739 M117.984 352.696 C 117.113 354.340,110.451 364.902,110.285 364.902 C 109.301 364.902,105.769 362.525,103.228 360.152 C 101.878 358.890,97.687 353.802,97.869 353.644 C 98.548 353.054,118.288 352.124,117.984 352.696 M224.224 353.382 C 223.429 354.521,215.023 364.118,214.821 364.118 C 213.184 364.118,204.902 355.983,204.902 354.375 C 204.902 353.712,212.630 353.067,221.727 352.971 L 224.532 352.941 224.224 353.382 " stroke="none" fill="#434343" fill-rule="evenodd"></path></g></svg>