<svg id="Capa_1" enable-background="new 0 0 385.239 385.239" height="512" viewBox="0 0 385.239 385.239" width="512" xmlns="http://www.w3.org/2000/svg"><g><g id="Snowflake"><path d="m363.332 218.21c2.859 7.039-.529 15.063-7.567 17.923l-38.229 15.547 35.381 21.26c6.598 3.768 8.893 12.172 5.125 18.77s-12.172 8.893-18.77 5.125c-.178-.101-.353-.207-.526-.316l-35.379-21.257 4.221 41.069c.654 7.57-4.953 14.238-12.523 14.892-7.399.639-13.97-4.709-14.847-12.084l-6.329-61.59-67.611-40.615v78.874l49.531 37.148c6.079 4.559 7.311 13.183 2.752 19.262s-13.183 7.311-19.262 2.752l-33.02-24.765v41.276c0 7.599-6.16 13.759-13.759 13.759s-13.759-6.16-13.759-13.759v-41.276l-33.02 24.765c-6.079 4.559-14.703 3.327-19.262-2.752s-3.327-14.703 2.752-19.262l49.531-37.148v-78.874l-67.608 40.625-6.329 61.59c-.72 7.012-6.623 12.346-13.672 12.354-.473.002-.946-.022-1.417-.073-7.554-.771-13.053-7.519-12.282-15.073.001-.005.001-.01.002-.016l4.221-41.069-35.379 21.257c-6.424 4.059-14.922 2.141-18.98-4.283-4.059-6.424-2.141-14.922 4.283-18.98.173-.109.348-.215.526-.316l35.381-21.26-38.229-15.547c-6.993-2.973-10.252-11.051-7.28-18.044 2.906-6.836 10.713-10.131 17.638-7.445l57.354 23.323 68.82-41.358-68.826-41.354-57.354 23.33c-7.084 2.748-15.055-.766-17.803-7.851-2.687-6.925.609-14.733 7.445-17.638l38.229-15.547-35.382-21.267c-6.599-3.768-8.893-12.172-5.125-18.77 3.768-6.599 12.172-8.893 18.77-5.125.178.101.353.207.526.316l35.379 21.257-4.221-41.07c-.775-7.559 4.724-14.316 12.283-15.091s14.316 4.724 15.091 12.283l6.329 61.59 67.609 40.622v-78.874l-49.531-37.148c-6.081-4.557-7.317-13.18-2.76-19.261s13.18-7.317 19.261-2.76c.003.002.006.005.01.007l33.02 24.765v-41.274c0-7.599 6.16-13.759 13.759-13.759s13.759 6.16 13.759 13.759v41.276l33.02-24.765c6.079-4.559 14.703-3.327 19.262 2.752s3.327 14.703-2.752 19.262l-49.531 37.146v78.875l67.608-40.626 6.329-61.59c.897-7.546 7.741-12.935 15.286-12.039 7.375.876 12.723 7.448 12.084 14.847l-4.221 41.069 35.379-21.257c6.424-4.058 14.922-2.141 18.98 4.283s2.141 14.922-4.283 18.98c-.173.109-.348.215-.526.316l-35.381 21.26 38.229 15.547c6.993 2.973 10.252 11.051 7.279 18.044-2.906 6.836-10.713 10.131-17.638 7.445l-57.354-23.323-68.82 41.358 68.826 41.354 57.354-23.323c7.027-2.866 15.046.507 17.912 7.534.003.009.007.017.011.026z"/></g></g></svg>