<svg id="Capa_1" enable-background="new 0 0 512 512" height="512" viewBox="0 0 512 512" width="512" xmlns="http://www.w3.org/2000/svg"><g><path d="m0 31v270h512v-270zm91 30h330v45c0 24.813-20.187 45-45 45h-240c-24.813 0-45-20.187-45-45zm60 210h-57.42c6.192-17.458 22.865-30 42.42-30h15zm90 0h-60v-30h60zm90 0h-60v-30h60zm30 0v-30h15c19.555 0 36.228 12.542 42.42 30zm121 0h-32.509c-6.968-34.192-37.271-60-73.491-60h-240c-36.219 0-66.522 25.808-73.491 60h-32.509v-210h31v45c0 41.355 33.645 75 75 75h240c41.355 0 75-33.645 75-75v-45h31z"/><path d="m121 91h270v30h-270z"/><path d="m467.471 400.51-16.471 9.509v-19.019h-30v19.019l-16.471-9.509-15 25.98 16.471 9.51-16.471 9.51 15 25.98 16.471-9.509v19.019h30v-19.019l16.471 9.509 15-25.98-16.471-9.51 16.471-9.51z"/><path d="m210.461 348.01-29.461 17.01v-34.02h-30v34.02l-29.461-17.01-15 25.98 29.461 17.01-29.461 17.01 15 25.98 29.461-17.01v34.02h30v-34.02l29.461 17.01 15-25.98-29.461-17.01 29.461-17.01z"/><path d="m301 331h30v30h-30z"/><path d="m31 451h30v30h-30z"/></g></svg>