<svg height="512pt" viewBox="0 -31 512 512" width="512pt" xmlns="http://www.w3.org/2000/svg"><path d="m0 390h61v60h90v-60h210v60h90v-60h61v-390h-512zm121 30h-30v-30h30zm270-270h91v30h-91zm0-30v-30h91v30zm30 300h-30v-30h30zm-30-60v-150h91v150zm91-300h-91v-30h91zm-452-30h331v330h-331zm0 0"/><path d="m196 60c-74.4375 0-135 60.5625-135 135s60.5625 135 135 135 135-60.5625 135-135-60.5625-135-135-135zm0 150c-8.269531 0-15-6.730469-15-15s6.730469-15 15-15 15 6.730469 15 15-6.730469 15-15 15zm19.390625-55.601562c-1.425781-.683594-2.890625-1.285157-4.390625-1.820313v-61.503906c17.761719 2.554687 34.105469 9.5625 47.847656 19.863281zm-34.390625-1.820313c-1.5.535156-2.96875 1.136719-4.390625 1.820313l-43.457031-43.460938c13.742187-10.300781 30.085937-17.308594 47.847656-19.859375zm-25.601562 23.03125c-.683594 1.421875-1.285157 2.890625-1.820313 4.390625h-61.503906c2.554687-17.761719 9.5625-34.105469 19.863281-47.851562zm-1.820313 34.390625c.535156 1.5 1.136719 2.96875 1.820313 4.390625l-43.460938 43.457031c-10.300781-13.742187-17.308594-30.085937-19.863281-47.847656zm23.03125 25.601562c1.425781.683594 2.890625 1.285157 4.390625 1.820313v61.503906c-17.761719-2.554687-34.105469-9.5625-47.847656-19.863281zm34.390625 1.820313c1.5-.535156 2.96875-1.136719 4.390625-1.820313l43.460937 43.460938c-13.746093 10.300781-30.085937 17.308594-47.851562 19.863281zm25.601562-23.042969c.683594-1.421875 1.285157-2.890625 1.816407-4.390625h61.503906c-2.550781 17.765625-9.558594 34.117188-19.859375 47.859375zm1.820313-34.378906c-.535156-1.5-1.136719-2.96875-1.820313-4.390625l43.460938-43.457031c10.300781 13.742187 17.308594 30.085937 19.863281 47.847656zm0 0"/><path d="m61 300h30v30h-30zm0 0"/><path d="m61 60h30v30h-30zm0 0"/><path d="m301 60h30v30h-30zm0 0"/><path d="m301 300h30v30h-30zm0 0"/><path d="m421 240h30v30h-30zm0 0"/><path d="m421 300h30v30h-30zm0 0"/></svg>