<?xml version="1.0" encoding="iso-8859-1"?>
<!-- Generator: Adobe Illustrator 19.0.0, SVG Export Plug-In . SVG Version: 6.00 Build 0)  -->
<svg version="1.1" id="Capa_1" xmlns="http://www.w3.org/2000/svg" xmlns:xlink="http://www.w3.org/1999/xlink" x="0px" y="0px"
	 viewBox="0 0 490 490" style="enable-background:new 0 0 490 490;" xml:space="preserve">
<path id="XMLID_1384_" d="M120,365v80c0,8.284-6.716,15-15,15s-15-6.716-15-15v-80c0-8.284,6.716-15,15-15S120,356.716,120,365z
	 M165,350c-8.284,0-15,6.716-15,15v80c0,8.284,6.716,15,15,15s15-6.716,15-15v-80C180,356.716,173.284,350,165,350z M490,65v190
	c0,34.159-26.486,62.248-60,64.81V450c0,22.056-17.944,40-40,40h-70c-22.056,0-40-17.944-40-40V320H65c-35.841,0-65-29.159-65-65V65
	C0,29.159,29.159,0,65,0h360C460.841,0,490,29.159,490,65z M320,230h50v-40c0-5.514-4.486-10-10-10H130c-5.514,0-10,4.486-10,10v100
	h160v-20C280,247.944,297.944,230,320,230z M400,430h-90v20c0,5.514,4.486,10,10,10h70c5.514,0,10-4.486,10-10V430z M400,270
	c0-5.514-4.486-10-10-10h-20v5c0,8.284-6.716,15-15,15s-15-6.716-15-15v-5h-20c-5.514,0-10,4.486-10,10v130h90V270z M460,65
	c0-19.299-15.701-35-35-35H65c-19.299,0-35,15.701-35,35v190c0,19.299,15.701,35,35,35h25V190c0-22.056,17.944-40,40-40h230
	c22.056,0,40,17.944,40,40v41.266c17.233,4.451,30,20.13,30,38.734v19.644c16.939-2.434,30-17.042,30-34.644V65z M225,350
	c-8.284,0-15,6.716-15,15v80c0,8.284,6.716,15,15,15s15-6.716,15-15v-80C240,356.716,233.284,350,225,350z"/>
<g>
</g>
<g>
</g>
<g>
</g>
<g>
</g>
<g>
</g>
<g>
</g>
<g>
</g>
<g>
</g>
<g>
</g>
<g>
</g>
<g>
</g>
<g>
</g>
<g>
</g>
<g>
</g>
<g>
</g>
</svg>
