<svg id="Layer_1" enable-background="new 0 0 510 510" height="512" viewBox="0 0 510 510" width="512" xmlns="http://www.w3.org/2000/svg"><g><path d="m360 60h-18.288l-15-60h-143.424l-15 60h-18.288c-33.084 0-60 26.916-60 60v240c0 33.084 26.916 60 60 60h5.73l-30 60h114.27v30h30v-30h114.271l-30-60h5.729c33.084 0 60-26.916 60-60v-240c0-33.084-26.916-60-60-60zm-153.288-30h96.576l7.5 30h-111.576zm-56.712 60h210c16.542 0 30 13.458 30 30v105h-30v-90h-210v90h-30v-105c0-16.542 13.458-30 30-30zm180 75v150h-150v-150zm5.729 285h-161.459l15-30h131.459zm24.271-60c-18.141 0-183.179 0-210 0-16.542 0-30-13.458-30-30v-105h30v90h210v-90h30v105c0 16.542-13.458 30-30 30z"/><path d="m210 195h30v90h-30z"/><path d="m270 195h30v90h-30z"/></g></svg>