<svg id="Capa_1" enable-background="new 0 0 512 512" height="512" viewBox="0 0 512 512" width="512" xmlns="http://www.w3.org/2000/svg"><g><g><path d="m256 512c-68.38 0-132.667-26.629-181.02-74.98-48.351-48.353-74.98-112.64-74.98-181.02s26.629-132.667 74.98-181.02c48.353-48.351 112.64-74.98 181.02-74.98s132.667 26.629 181.02 74.98c48.351 48.353 74.98 112.64 74.98 181.02s-26.629 132.667-74.98 181.02c-48.353 48.351-112.64 74.98-181.02 74.98zm0-482c-60.367 0-117.12 23.508-159.806 66.194s-66.194 99.439-66.194 159.806 23.508 117.12 66.194 159.806 99.439 66.194 159.806 66.194 117.12-23.508 159.806-66.194 66.194-99.439 66.194-159.806-23.508-117.12-66.194-159.806-99.439-66.194-159.806-66.194z"/></g><g><path d="m256 392c-74.99 0-136-61.009-136-136s61.01-136 136-136 136 61.009 136 136-61.01 136-136 136zm0-242c-58.448 0-106 47.551-106 106s47.552 106 106 106 106-47.551 106-106-47.552-106-106-106z"/></g><g><path d="m241 60h30v30h-30z"/></g><g><path d="m368.987 113.014h30v30h-30z" transform="matrix(.707 -.707 .707 .707 21.948 309.014)"/></g><g><path d="m422 241h30v30h-30z"/></g><g><path d="m368.987 368.987h30v30h-30z" transform="matrix(.707 -.707 .707 .707 -159.052 383.986)"/></g><g><path d="m241 422h30v30h-30z"/></g><g><path d="m113.014 368.987h30v30h-30z" transform="matrix(.707 -.707 .707 .707 -234.025 202.986)"/></g><g><path d="m60 241h30v30h-30z"/></g><g><path d="m113.014 113.014h30v30h-30z" transform="matrix(.707 -.707 .707 .707 -53.025 128.014)"/></g></g></svg>