<svg id="Capa_1" enable-background="new 0 0 512 512" height="512" viewBox="0 0 512 512" width="512" xmlns="http://www.w3.org/2000/svg"><g><path d="m422 166c0-91.533-74.468-166-166-166-91.533 0-166 74.467-166 166 0 71.89 45.939 133.243 110 156.27v39.73h-41v90h41v60h112v-60h41v-90h-41v-39.73c64.06-23.027 110-84.38 110-156.27zm-59.86 84.926-29.066-29.065-21.213 21.214 29.065 29.065c-23.288 18.672-52.823 29.86-84.926 29.86s-61.638-11.188-84.927-29.86l29.065-29.065-21.213-21.213-29.065 29.065c-15.724-19.611-26.133-43.652-29.029-69.927h41.169v-30h-41.169c2.896-26.274 13.305-50.316 29.029-69.927l29.065 29.065 21.213-21.213-29.065-29.065c19.611-15.723 43.653-26.133 69.927-29.029v41.169h30v-41.169c26.274 2.896 50.316 13.305 69.927 29.029l-29.065 29.065 21.213 21.214 29.066-29.065c18.671 23.288 29.859 52.823 29.859 84.926s-11.188 61.638-29.86 84.926zm-80.14 231.074h-52v-30h52zm41-60h-134v-30h134zm-41-60h-52v-32.041c8.474 1.339 17.156 2.041 26 2.041s17.526-.703 26-2.041z"/><path d="m298.42 151c-6.192-17.459-22.865-30-42.42-30-24.813 0-45 20.187-45 45s20.187 45 45 45c19.555 0 36.228-12.541 42.42-30h62.58v-30zm-42.42 30c-8.271 0-15-6.729-15-15s6.729-15 15-15 15 6.729 15 15-6.729 15-15 15z"/></g></svg>