<svg id="Layer_1" enable-background="new 0 0 510.001 510.001" height="512" viewBox="0 0 510.001 510.001" width="512" xmlns="http://www.w3.org/2000/svg"><g><path d="m420.001 270.001v30h-159.271l22.172 44.343-20.802 34.67-8.609-43.047-53.948-35.966h-109.542v-30h-90v240h90v-30h330v30h90v-240zm-390 210v-180h30v180zm60-30v-120h100.458l36.052 24.034 19.193 95.966zm164.493 0 62.605-104.343-7.828-15.657h110.729v120zm225.507 30h-30v-180h30z"/><path d="m360.001.001h30v30h-30z"/><path d="m135.001 210.001h30v30h-30z"/><path d="m180.001 180.001h24.424l50.576 70.807 50.576-70.807h24.424c79.509-3.026 79.449-117.002 0-120h-1.507c-11.233-55.101-77.09-78.384-120.362-43.552-39.606-8.892-76.352 23.466-72.914 63.621-34.176 38.263-7.146 99.931 44.783 99.931zm-12.038-89.01c-1.655-7.64-2.962-10.633-2.962-15.99 0-16.542 13.458-30 30-30 8.621 0 13.332 3.381 20.633 5.993 3.922-3.041 14.954-20.993 39.367-20.993 24.813 0 45 20.187 45 45v15h30c39.754 1.513 39.724 58.501 0 60h-39.861l-35.139 49.193-35.139-49.193h-39.861c-16.542 0-30-13.458-30-30 0-18.383 14.803-25.48 17.962-29.01z"/></g></svg>