<svg id="Capa_1" enable-background="new 0 0 512 512" height="512" viewBox="0 0 512 512" width="512" xmlns="http://www.w3.org/2000/svg"><g><path d="m202 249c24.813 0 45-20.187 45-45h-30c0 8.271-6.729 15-15 15s-15-6.729-15-15h-30c0 24.813 20.187 45 45 45z"/><path d="m441.993 224.985-19.993-7.056v78.071h-30v-78.071l-19.993 7.057c-27.89 9.844-49.67 30.791-61.116 56.811-8.374-1.843-16.943-2.796-25.61-2.796h-9.878c19.484-19.074 31.597-45.647 31.597-75.001v-71h30v-30h-30v-32.853c0-38.679-31.468-70.147-70.148-70.147h-69.704c-38.68 0-70.148 31.468-70.148 70.147v32.853h-30v30h30v71c0 29.354 12.113 55.927 31.596 75h-9.878c-65.461 0-118.718 53.257-118.718 118.718v114.282h452v-93.111c36.286-17.22 60-54.102 60-94.889 0-44.443-28.134-84.234-70.007-99.015zm-338.993 227.015h198v30h-198zm128.508-143v.491c0 16.272-13.237 29.509-29.508 29.509s-29.508-13.237-29.508-29.509v-.491zm-104.508-238.853c0-22.137 18.01-40.147 40.148-40.147h69.704c22.138 0 40.148 18.01 40.148 40.147v32.853h-150zm0 133.853v-71h150v71c0 41.355-33.645 75-75 75s-75-33.645-75-75zm15.492 105v.491c0 32.814 26.695 59.509 59.508 59.509s59.508-26.695 59.508-59.509v-.491h23.773c5.305 0 10.557.482 15.718 1.403v111.597h-197.999v-111.605c5.103-.916 10.356-1.395 15.718-1.395zm-112.492 88.718c0-32.207 17.253-60.458 43-76.004v160.286h-43zm301 84.282v-85.599c8.754 9.208 19.208 16.892 31 22.488v63.111zm101.001-87.27-10.001 3.536v83.734h-30v-83.734l-10.001-3.535c-29.906-10.57-49.999-38.995-49.999-70.731 0-23.999 11.48-46.098 30-60.015v62.015h90v-62.015c18.52 13.917 30 36.016 30 60.015 0 31.736-20.093 60.161-49.999 70.73z"/></g></svg>